<?xml version="1.0" standalone="no"?>
<!DOCTYPE svg PUBLIC "-//W3C//DTD SVG 20010904//EN"
 "http://www.w3.org/TR/2001/REC-SVG-20010904/DTD/svg10.dtd">
<svg version="1.0" xmlns="http://www.w3.org/2000/svg"
 width="300.000000pt" height="300.000000pt" viewBox="0 0 300.000000 300.000000"
 preserveAspectRatio="xMidYMid meet">
<metadata>
Created by potrace 1.11, written by Peter Selinger 2001-2013
</metadata>
<g transform="translate(0.000000,300.000000) scale(0.100000,-0.100000)"
fill="#000000" stroke="none">
<path d="M1310 2913 c-386 -56 -690 -219 -927 -498 -155 -184 -277 -443 -309
-655 -3 -19 -7 -42 -11 -50 -3 -8 -7 -85 -8 -170 -6 -247 32 -428 132 -640
177 -373 510 -653 903 -759 139 -38 206 -46 375 -46 261 0 459 49 677 168 339
185 581 493 688 874 38 133 45 195 44 383 -1 301 -89 573 -263 813 -218 301
-524 492 -906 567 -57 11 -342 21 -395 13z"/>
</g>
</svg>
